<svg xmlns="http://www.w3.org/2000/svg" viewBox="150 120 500 470">
  <!-- Fully transparent background with no background elements -->
  
  <!-- Enhanced definitions for ultra-futuristic effects -->
  <defs>
    <!-- Advanced center core gradient -->
    <radialGradient id="hyperCoreGlow" cx="50%" cy="50%" r="50%" fx="50%" fy="50%">
      <stop offset="0%" stop-color="#ffffff" stop-opacity="1"/>
      <stop offset="30%" stop-color="#e0f8ff" stop-opacity="0.9"/>
      <stop offset="60%" stop-color="#80e0ff" stop-opacity="0.7"/>
      <stop offset="100%" stop-color="#ffffff" stop-opacity="0"/>
    </radialGradient>
    
    <!-- Ultra vibrant gradient -->
    <linearGradient id="hyperGradient" x1="0%" y1="0%" x2="100%" y2="0%">
      <stop offset="0%" stop-color="#ff00ee"/>
      <stop offset="25%" stop-color="#aa00ff"/>
      <stop offset="50%" stop-color="#5555ff"/>
      <stop offset="75%" stop-color="#00aaff"/>
      <stop offset="100%" stop-color="#00ffdd"/>
    </linearGradient>
    
    <!-- Extreme glow filter -->
    <filter id="hyperGlow" x="-50%" y="-50%" width="200%" height="200%">
      <feGaussianBlur in="SourceGraphic" stdDeviation="20" result="blur"/>
      <feComposite in="SourceGraphic" in2="blur" operator="over"/>
    </filter>
  </defs>
  
  <!-- Advanced central core with quantum effect -->
  <circle cx="400" cy="400" r="30" fill="url(#hyperCoreGlow)" filter="url(#hyperGlow)"/>
  <circle cx="400" cy="400" r="15" fill="#ffffff" opacity="0.9"/>
  
  <!-- Complex orbital system with multiple layers -->
  <path d="M 200,400 A 200,200 0 0,1 600,400" stroke="#ff00ee" stroke-width="12" fill="none" filter="url(#hyperGlow)" opacity="0.85"/>
  <path d="M 220,370 A 210,210 0 0,1 580,370" stroke="#aa00ff" stroke-width="10" fill="none" filter="url(#hyperGlow)" opacity="0.8"/>
  <path d="M 240,340 A 180,180 0 0,1 560,340" stroke="#5555ff" stroke-width="14" fill="none" filter="url(#hyperGlow)" opacity="0.75"/>
  <path d="M 260,320 A 150,150 0 0,1 540,320" stroke="#00aaff" stroke-width="8" fill="none" filter="url(#hyperGlow)" opacity="0.7"/>
  <path d="M 290,300 A 120,120 0 0,1 510,300" stroke="#00ffdd" stroke-width="6" fill="none" filter="url(#hyperGlow)" opacity="0.65"/>
  
  <!-- Partial orbits for additional complexity -->
  <path d="M 300,450 A 100,100 0 0,1 500,450" stroke="#ff00ee" stroke-width="8" fill="none" filter="url(#hyperGlow)" opacity="0.7"/>
  <path d="M 350,480 A 70,70 0 0,1 450,480" stroke="#00ffdd" stroke-width="6" fill="none" filter="url(#hyperGlow)" opacity="0.6"/>
  <path d="M 320,300 A 80,80 0 0,0 480,300" stroke="#aa00ff" stroke-width="7" fill="none" filter="url(#hyperGlow)" opacity="0.65"/>
  
  <!-- Energy beams with more dynamic structure -->
  <line x1="280" y1="280" x2="520" y2="520" stroke="#00ffdd" stroke-width="8" filter="url(#hyperGlow)"/>
  <line x1="280" y1="520" x2="520" y2="280" stroke="#ff00ee" stroke-width="8" filter="url(#hyperGlow)"/>
  <line x1="350" y1="250" x2="450" y2="550" stroke="#5555ff" stroke-width="6" filter="url(#hyperGlow)"/>
  <line x1="320" y1="400" x2="480" y2="400" stroke="#aa00ff" stroke-width="7" filter="url(#hyperGlow)"/>
  
  <!-- Elaborate orbital objects -->
  <circle cx="570" cy="350" r="40" fill="url(#hyperGradient)" filter="url(#hyperGlow)" opacity="0.9"/>
  <circle cx="570" cy="350" r="20" fill="#ffffff" opacity="0.4"/>
  
  <circle cx="230" cy="450" r="35" fill="url(#hyperGradient)" filter="url(#hyperGlow)" opacity="0.85"/>
  <circle cx="230" cy="450" r="18" fill="#ffffff" opacity="0.3"/>
  
  <circle cx="470" cy="240" r="25" fill="#00ffaa" filter="url(#hyperGlow)" opacity="0.8"/>
  <circle cx="470" cy="240" r="12" fill="#ffffff" opacity="0.3"/>
  
  <circle cx="330" cy="520" r="30" fill="#ff00aa" filter="url(#hyperGlow)" opacity="0.85"/>
  <circle cx="330" cy="520" r="15" fill="#ffffff" opacity="0.3"/>
  
  <!-- Extensive energy particle system -->
  <circle cx="480" cy="400" r="8" fill="#ffffff" filter="url(#hyperGlow)"/>
  <circle cx="380" cy="350" r="5" fill="#00ffff" filter="url(#hyperGlow)"/>
  <circle cx="330" cy="450" r="7" fill="#ff00ff" filter="url(#hyperGlow)"/>
  <circle cx="430" cy="500" r="6" fill="#00ffaa" filter="url(#hyperGlow)"/>
  <circle cx="520" cy="480" r="4" fill="#aa00ff" filter="url(#hyperGlow)"/>
  <circle cx="270" cy="380" r="6" fill="#3399ff" filter="url(#hyperGlow)"/>
  <circle cx="490" cy="330" r="7" fill="#ff00ee" filter="url(#hyperGlow)"/>
  <circle cx="370" cy="280" r="5" fill="#00ffdd" filter="url(#hyperGlow)"/>
  <circle cx="450" cy="420" r="7" fill="#ffffff" filter="url(#hyperGlow)"/>
  <circle cx="290" cy="420" r="4" fill="#00aaff" filter="url(#hyperGlow)"/>
  <circle cx="410" cy="350" r="5" fill="#5555ff" filter="url(#hyperGlow)"/>
  <circle cx="350" cy="550" r="3" fill="#ff00ee" filter="url(#hyperGlow)"/>
  <circle cx="450" cy="550" r="5" fill="#00ffdd" filter="url(#hyperGlow)"/>
  <circle cx="550" cy="400" r="6" fill="#aa00ff" filter="url(#hyperGlow)"/>
  <circle cx="250" cy="400" r="6" fill="#00aaff" filter="url(#hyperGlow)"/>
</svg>
